<svg xmlns:xlink="http://www.w3.org/1999/xlink" xmlns="http://www.w3.org/2000/svg" viewBox="0 0 129.02796013381425 129.02796013381425" height="129.02796013381425" width="129.02796013381425"><g><path d="M0 64.514c0-35.63 28.884-64.514 64.514-64.514 35.63 0 64.514 28.884 64.514 64.514 0 35.63-28.884 64.514-64.514 64.514-35.63 0-64.514-28.884-64.514-64.514zM64.514 124.094c32.905 0 59.58-26.675 59.58-59.58 0-32.905-26.675-59.58-59.58-59.58-32.905 0-59.58 26.675-59.58 59.58 0 32.905 26.675 59.58 59.58 59.58z" data-fill-palette-color="accent" fill="#FFFFFF" stroke="#000000" stroke-opacity="0"></path><ellipse rx="63.86884026623805" ry="63.86884026623805" cx="64.51398006690712" cy="64.51398006690712" fill="#FFFFFF" stroke="#000000" stroke-width="0px" fill-opacity="1" data-fill-palette-color="accent" stroke-opacity="0"></ellipse></g><g transform="matrix(1,0,0,1,37.617436934033044,31.02661690302739)"><svg viewBox="0 0 53.79308626574816 66.97472632775947" height="66.97472632775947" width="53.79308626574816"><g><svg xmlns="http://www.w3.org/2000/svg" xmlns:xlink="http://www.w3.org/1999/xlink" version="1.0" x="0" y="0" viewBox="29 21 46.249794006347656 57.58300018310547" enable-background="new 0 0 100 100" xml:space="preserve" height="66.97472632775947" width="53.79308626574816" class="icon-s-0" data-fill-palette-color="quaternary" id="s-0"><g fill="#398378" data-fill-palette-color="quaternary"><g fill="#398378" data-fill-palette-color="quaternary"><path d="M75.191 50.908l-3.628-10.163C68.08 30.981 62.794 21 50 21c-11.579 0-21 9.421-21 21 0 6.377 2.826 12.299 7.769 16.309l3.09 17.194c0.055 0.301 0.243 0.561 0.513 0.705 0.181 0.097 4.496 2.375 9.378 2.375 4.882 0 9.196-2.278 9.378-2.375 0.27-0.145 0.458-0.404 0.513-0.705l3.046-16.951c0.022-0.119 0.021-0.236 0.001-0.349 1.788-1.608 3.352-3.603 4.651-5.959H74.25c0.325 0 0.63-0.158 0.817-0.424C75.255 51.555 75.301 51.214 75.191 50.908zM66.74 50.244c-0.372 0-0.714 0.207-0.887 0.537C62.584 57.044 57.336 60.633 51 60.974V56.5v-5.297-3.602L55.1 40.5c0.179-0.31 0.179-0.69 0-1S54.591 39 54.233 39h-8.467c-0.357 0-0.688 0.19-0.867 0.5s-0.179 0.69 0 1L49 47.601v3.602V56.5 62c0 0.553 0.447 1 1 1 3.856 0 7.375-1.043 10.4-3.03l-1.649 9.179c-2.512 1.169-5.201 1.768-8.001 1.768-1.749 0-3.482-0.238-5.152-0.707-0.53-0.148-1.084 0.16-1.234 0.692-0.15 0.532 0.161 1.084 0.693 1.234 1.847 0.519 3.762 0.781 5.693 0.781 2.629 0 5.169-0.481 7.578-1.417l-0.566 3.152C56.617 75.19 53.308 76.583 49.75 76.583c-3.544 0-6.863-1.394-8.012-1.932l-1.659-9.236C43.118 67.049 46.505 67.917 50 67.917c1.932 0 3.847-0.263 5.693-0.781 0.531-0.149 0.842-0.701 0.693-1.234-0.149-0.532-0.699-0.841-1.234-0.692C53.482 65.679 51.749 65.917 50 65.917c-3.716 0-7.298-1.076-10.388-3.1l-0.94-5.231c-0.043-0.242-0.174-0.46-0.368-0.612C33.662 53.344 31 47.886 31 42c0-10.477 8.523-19 19-19 11.521 0 16.268 8.852 19.681 18.417l3.15 8.827H66.74zM50 45.333L47.498 41h5.003L50 45.333z" fill="#398378" data-fill-palette-color="quaternary"></path><path d="M42.896 46.102c-0.277-0.479-0.89-0.643-1.366-0.367l-4.588 2.649c-0.479 0.276-0.643 0.888-0.366 1.366 0.186 0.321 0.521 0.5 0.867 0.5 0.17 0 0.342-0.043 0.499-0.134l4.588-2.648C43.009 47.191 43.173 46.58 42.896 46.102z" fill="#398378" data-fill-palette-color="quaternary"></path><path d="M63.058 48.384l-4.588-2.649c-0.479-0.276-1.09-0.112-1.367 0.367-0.276 0.479-0.112 1.09 0.367 1.366l4.588 2.648C62.215 50.207 62.387 50.25 62.557 50.25c0.346 0 0.682-0.18 0.867-0.5C63.7 49.271 63.536 48.66 63.058 48.384z" fill="#398378" data-fill-palette-color="quaternary"></path><path d="M63.5 41h-4.297c-0.553 0-1 0.447-1 1s0.447 1 1 1H63.5c0.553 0 1-0.447 1-1S64.053 41 63.5 41z" fill="#398378" data-fill-palette-color="quaternary"></path><path d="M55.468 34.53l2.148-3.721C57.893 30.33 57.728 29.719 57.25 29.442c-0.478-0.276-1.09-0.111-1.366 0.367l-2.149 3.721c-0.276 0.479-0.112 1.09 0.367 1.366 0.157 0.091 0.329 0.134 0.499 0.134C54.946 35.03 55.282 34.851 55.468 34.53z" fill="#398378" data-fill-palette-color="quaternary"></path><path d="M44.116 29.809C43.84 29.331 43.227 29.166 42.75 29.442c-0.479 0.276-0.643 0.888-0.366 1.367l2.148 3.721c0.186 0.32 0.521 0.5 0.867 0.5 0.17 0 0.342-0.043 0.499-0.134 0.479-0.276 0.643-0.888 0.367-1.366L44.116 29.809z" fill="#398378" data-fill-palette-color="quaternary"></path><path d="M40.797 43c0.553 0 1-0.447 1-1s-0.447-1-1-1H36.5c-0.553 0-1 0.447-1 1s0.447 1 1 1H40.797z" fill="#398378" data-fill-palette-color="quaternary"></path><path d="M42.384 53.191c-0.276 0.479-0.112 1.09 0.366 1.367 0.157 0.091 0.329 0.134 0.499 0.133 0.346 0 0.682-0.18 0.867-0.5l2.149-3.721c0.276-0.479 0.112-1.09-0.367-1.366-0.478-0.276-1.091-0.112-1.366 0.366L42.384 53.191z" fill="#398378" data-fill-palette-color="quaternary"></path><path d="M55.468 49.47c-0.277-0.479-0.89-0.643-1.366-0.366-0.479 0.276-0.643 0.888-0.367 1.366l2.149 3.721c0.185 0.32 0.521 0.5 0.867 0.5 0.17 0 0.342-0.043 0.499-0.133 0.478-0.276 0.643-0.888 0.366-1.367L55.468 49.47z" fill="#398378" data-fill-palette-color="quaternary"></path><path d="M57.103 37.898c0.186 0.321 0.522 0.5 0.868 0.5 0.17 0 0.342-0.043 0.499-0.133l4.588-2.649c0.479-0.276 0.643-0.888 0.366-1.366-0.277-0.479-0.89-0.644-1.366-0.366l-4.588 2.648C56.991 36.809 56.827 37.42 57.103 37.898z" fill="#398378" data-fill-palette-color="quaternary"></path><path d="M50 26.5c-0.553 0-1 0.447-1 1v5.297c0 0.553 0.447 1 1 1 0.553 0 1-0.447 1-1V27.5C51 26.947 50.553 26.5 50 26.5z" fill="#398378" data-fill-palette-color="quaternary"></path><path d="M36.942 35.616l4.588 2.649c0.157 0.091 0.329 0.134 0.499 0.133 0.346 0 0.682-0.18 0.867-0.5 0.276-0.479 0.112-1.09-0.366-1.366l-4.588-2.648c-0.479-0.277-1.09-0.112-1.366 0.366C36.3 34.729 36.464 35.34 36.942 35.616z" fill="#398378" data-fill-palette-color="quaternary"></path></g></g></svg></g></svg></g></svg>